<?xml version="1.0" encoding="UTF-8"?>
<svg xmlns="http://www.w3.org/2000/svg" xmlns:xlink="http://www.w3.org/1999/xlink" width="375pt" height="374.999991pt" viewBox="0 0 375 374.999991" version="1.2">
<defs>
<clipPath id="clip1">
  <path d="M 56.589844 63.804688 L 304.636719 63.804688 L 304.636719 311.851562 L 56.589844 311.851562 Z M 56.589844 63.804688 "/>
</clipPath>
<clipPath id="clip2">
  <path d="M 56.589844 187 L 181 187 L 181 311.851562 L 56.589844 311.851562 Z M 56.589844 187 "/>
</clipPath>
<clipPath id="clip3">
  <path d="M 141.496094 163.035156 L 187 163.035156 L 187 208 L 141.496094 208 Z M 141.496094 163.035156 "/>
</clipPath>
<clipPath id="clip4">
  <path d="M 174 163.035156 L 219.453125 163.035156 L 219.453125 208 L 174 208 Z M 174 163.035156 "/>
</clipPath>
<clipPath id="clip5">
  <path d="M 141.496094 196 L 187 196 L 187 241 L 141.496094 241 Z M 141.496094 196 "/>
</clipPath>
<clipPath id="clip6">
  <path d="M 174 196 L 219.453125 196 L 219.453125 242 L 174 242 Z M 174 196 "/>
</clipPath>
<clipPath id="clip7">
  <path d="M 141.496094 230 L 187 230 L 187 275 L 141.496094 275 Z M 141.496094 230 "/>
</clipPath>
<clipPath id="clip8">
  <path d="M 174 230 L 219.453125 230 L 219.453125 275 L 174 275 Z M 174 230 "/>
</clipPath>
<clipPath id="clip9">
  <path d="M 174 163.035156 L 187 163.035156 L 187 311.863281 L 174 311.863281 Z M 174 163.035156 "/>
</clipPath>
<clipPath id="clip10">
  <path d="M 244.390625 63.804688 L 318.804688 63.804688 L 318.804688 138.21875 L 244.390625 138.21875 Z M 244.390625 63.804688 "/>
</clipPath>
</defs>
<g id="surface1">
<g clip-path="url(#clip1)" clip-rule="nonzero">
<path style=" stroke:none;fill-rule:nonzero;fill:rgb(96.469116%,96.469116%,91.369629%);fill-opacity:1;" d="M 304.558594 311.851562 L 56.667969 311.851562 L 56.667969 63.804688 L 57.839844 63.804688 C 61.886719 63.824219 65.929688 63.941406 69.96875 64.160156 C 74.007812 64.378906 78.039062 64.695312 82.066406 65.113281 C 86.089844 65.527344 90.101562 66.042969 94.101562 66.652344 C 98.101562 67.265625 102.082031 67.976562 106.046875 68.78125 C 110.011719 69.589844 113.957031 70.492188 117.875 71.492188 C 121.796875 72.492188 125.691406 73.589844 129.558594 74.777344 C 133.421875 75.96875 137.257812 77.253906 141.0625 78.632812 C 144.867188 80.011719 148.636719 81.480469 152.367188 83.042969 C 156.097656 84.605469 159.789062 86.261719 163.441406 88.003906 C 167.09375 89.746094 170.699219 91.578125 174.261719 93.5 C 177.820312 95.417969 181.335938 97.425781 184.796875 99.515625 C 188.261719 101.609375 191.671875 103.785156 195.027344 106.042969 C 198.382812 108.300781 201.683594 110.640625 204.925781 113.0625 C 208.167969 115.480469 211.351562 117.980469 214.46875 120.554688 C 217.589844 123.132812 220.644531 125.78125 223.636719 128.507812 C 226.625 131.234375 229.546875 134.03125 232.398438 136.898438 C 235.253906 139.769531 238.035156 142.703125 240.746094 145.710938 C 243.453125 148.714844 246.089844 151.785156 248.648438 154.917969 C 251.207031 158.050781 253.6875 161.246094 256.089844 164.5 C 258.492188 167.757812 260.816406 171.066406 263.054688 174.4375 C 265.296875 177.804688 267.453125 181.226562 269.527344 184.703125 C 271.601562 188.175781 273.589844 191.699219 275.488281 195.269531 C 277.390625 198.84375 279.203125 202.457031 280.925781 206.121094 C 282.648438 209.78125 284.28125 213.480469 285.824219 217.21875 C 287.367188 220.960938 288.820312 224.738281 290.175781 228.546875 C 291.535156 232.359375 292.796875 236.203125 293.96875 240.074219 C 295.136719 243.949219 296.210938 247.847656 297.191406 251.773438 C 298.171875 255.699219 299.050781 259.648438 299.839844 263.617188 C 300.625 267.585938 301.3125 271.570312 301.902344 275.574219 C 302.492188 279.574219 302.984375 283.589844 303.378906 287.617188 C 303.773438 291.644531 304.070312 295.679688 304.265625 299.71875 C 304.460938 303.761719 304.558594 307.804688 304.558594 311.851562 Z M 304.558594 311.851562 "/>
</g>
<g clip-path="url(#clip2)" clip-rule="nonzero">
<path style=" stroke:none;fill-rule:nonzero;fill:rgb(79.60968%,86.669922%,81.959534%);fill-opacity:1;" d="M 180.574219 311.851562 L 56.667969 311.851562 L 56.667969 187.789062 L 57.292969 187.789062 C 59.316406 187.800781 61.335938 187.859375 63.355469 187.96875 C 65.375 188.082031 67.390625 188.242188 69.402344 188.449219 C 71.414062 188.660156 73.421875 188.917969 75.417969 189.222656 C 77.417969 189.53125 79.410156 189.886719 81.390625 190.292969 C 83.371094 190.695312 85.34375 191.148438 87.304688 191.648438 C 89.261719 192.152344 91.207031 192.699219 93.140625 193.296875 C 95.074219 193.890625 96.992188 194.535156 98.890625 195.226562 C 100.792969 195.914062 102.675781 196.652344 104.542969 197.433594 C 106.40625 198.214844 108.253906 199.042969 110.078125 199.917969 C 111.902344 200.789062 113.703125 201.707031 115.484375 202.667969 C 117.261719 203.625 119.019531 204.628906 120.75 205.675781 C 122.480469 206.722656 124.183594 207.8125 125.863281 208.941406 C 127.539062 210.074219 129.1875 211.242188 130.808594 212.453125 C 132.429688 213.664062 134.019531 214.914062 135.578125 216.203125 C 137.136719 217.492188 138.664062 218.816406 140.15625 220.179688 C 141.652344 221.542969 143.109375 222.941406 144.535156 224.378906 C 145.960938 225.8125 147.351562 227.28125 148.707031 228.785156 C 150.058594 230.285156 151.375 231.820312 152.65625 233.386719 C 153.933594 234.957031 155.171875 236.550781 156.375 238.179688 C 157.574219 239.808594 158.734375 241.464844 159.851562 243.148438 C 160.972656 244.832031 162.050781 246.542969 163.085938 248.28125 C 164.121094 250.019531 165.113281 251.78125 166.0625 253.566406 C 167.011719 255.351562 167.917969 257.160156 168.78125 258.992188 C 169.640625 260.820312 170.457031 262.671875 171.226562 264.542969 C 171.996094 266.410156 172.722656 268.300781 173.398438 270.203125 C 174.078125 272.109375 174.707031 274.03125 175.292969 275.96875 C 175.875 277.902344 176.414062 279.855469 176.902344 281.816406 C 177.390625 283.777344 177.832031 285.753906 178.222656 287.738281 C 178.613281 289.722656 178.957031 291.714844 179.253906 293.714844 C 179.546875 295.714844 179.792969 297.722656 179.988281 299.734375 C 180.183594 301.75 180.332031 303.765625 180.429688 305.785156 C 180.527344 307.804688 180.574219 309.828125 180.574219 311.851562 Z M 180.574219 311.851562 "/>
</g>
<g clip-path="url(#clip3)" clip-rule="nonzero">
<path style=" stroke:none;fill-rule:nonzero;fill:rgb(27.059937%,49.01886%,34.509277%);fill-opacity:1;" d="M 141.96875 207.285156 L 141.855469 207.285156 L 141.855469 195.769531 C 143.996094 195.765625 146.113281 195.558594 148.210938 195.140625 C 150.308594 194.722656 152.347656 194.105469 154.324219 193.289062 C 156.300781 192.46875 158.179688 191.464844 159.957031 190.28125 C 161.738281 189.09375 163.382812 187.742188 164.898438 186.230469 C 166.453125 184.722656 167.84375 183.078125 169.070312 181.292969 C 170.296875 179.507812 171.335938 177.621094 172.183594 175.628906 C 173.035156 173.636719 173.679688 171.582031 174.121094 169.464844 C 174.5625 167.34375 174.792969 165.199219 174.804688 163.035156 L 186.328125 163.035156 C 186.328125 165.949219 186.042969 168.832031 185.472656 171.691406 C 184.902344 174.546875 184.058594 177.320312 182.9375 180.007812 C 181.816406 182.699219 180.441406 185.25 178.8125 187.664062 C 177.183594 190.082031 175.332031 192.3125 173.261719 194.363281 C 171.210938 196.417969 168.976562 198.253906 166.5625 199.871094 C 164.144531 201.484375 161.59375 202.84375 158.910156 203.953125 C 156.222656 205.0625 153.457031 205.898438 150.605469 206.457031 C 147.753906 207.019531 144.875 207.296875 141.96875 207.285156 Z M 141.96875 207.285156 "/>
</g>
<g clip-path="url(#clip4)" clip-rule="nonzero">
<path style=" stroke:none;fill-rule:nonzero;fill:rgb(27.059937%,49.01886%,34.509277%);fill-opacity:1;" d="M 219.046875 207.492188 C 217.59375 207.488281 216.144531 207.410156 214.699219 207.265625 C 213.257812 207.117188 211.820312 206.898438 210.398438 206.609375 C 208.976562 206.324219 207.570312 205.964844 206.179688 205.539062 C 204.792969 205.113281 203.429688 204.621094 202.089844 204.0625 C 200.75 203.5 199.4375 202.878906 198.160156 202.1875 C 196.882812 201.5 195.640625 200.75 194.433594 199.941406 C 193.230469 199.132812 192.066406 198.265625 190.945312 197.339844 C 189.824219 196.417969 188.753906 195.441406 187.730469 194.410156 C 186.707031 193.382812 185.734375 192.304688 184.816406 191.179688 C 183.898438 190.054688 183.035156 188.886719 182.230469 187.679688 C 181.425781 186.46875 180.683594 185.226562 180.003906 183.941406 C 179.320312 182.660156 178.703125 181.347656 178.148438 180.007812 C 177.597656 178.664062 177.113281 177.296875 176.691406 175.90625 C 176.273438 174.515625 175.925781 173.109375 175.644531 171.683594 C 175.363281 170.261719 175.152344 168.824219 175.011719 167.382812 C 174.871094 165.9375 174.804688 164.488281 174.804688 163.035156 L 186.328125 163.035156 C 186.324219 164.109375 186.375 165.183594 186.476562 166.253906 C 186.582031 167.324219 186.738281 168.386719 186.945312 169.445312 C 187.152344 170.5 187.410156 171.542969 187.71875 172.570312 C 188.03125 173.601562 188.390625 174.613281 188.800781 175.609375 C 189.207031 176.605469 189.664062 177.578125 190.171875 178.527344 C 190.675781 179.476562 191.226562 180.398438 191.820312 181.292969 C 192.414062 182.191406 193.054688 183.054688 193.734375 183.886719 C 194.414062 184.722656 195.132812 185.519531 195.890625 186.28125 C 196.652344 187.046875 197.445312 187.769531 198.273438 188.453125 C 199.105469 189.136719 199.964844 189.78125 200.859375 190.382812 C 201.75 190.980469 202.671875 191.535156 203.617188 192.046875 C 204.566406 192.554688 205.535156 193.019531 206.527344 193.433594 C 207.523438 193.847656 208.53125 194.214844 209.5625 194.527344 C 210.589844 194.84375 211.632812 195.109375 212.6875 195.324219 C 213.742188 195.535156 214.804688 195.695312 215.875 195.804688 C 216.945312 195.914062 218.015625 195.972656 219.09375 195.976562 Z M 219.046875 207.492188 "/>
</g>
<g clip-path="url(#clip5)" clip-rule="nonzero">
<path style=" stroke:none;fill-rule:nonzero;fill:rgb(27.059937%,49.01886%,34.509277%);fill-opacity:1;" d="M 141.96875 240.894531 L 141.855469 240.894531 L 141.855469 229.375 C 143.996094 229.375 146.117188 229.164062 148.214844 228.746094 C 150.3125 228.328125 152.351562 227.710938 154.328125 226.890625 C 156.304688 226.070312 158.183594 225.0625 159.960938 223.875 C 161.742188 222.683594 163.386719 221.332031 164.898438 219.816406 C 166.429688 218.300781 167.800781 216.652344 169.003906 214.867188 C 170.210938 213.078125 171.226562 211.191406 172.058594 209.203125 C 172.890625 207.214844 173.515625 205.164062 173.941406 203.050781 C 174.363281 200.933594 174.574219 198.800781 174.574219 196.644531 L 186.097656 196.644531 C 186.097656 199.554688 185.8125 202.441406 185.238281 205.296875 C 184.667969 208.152344 183.820312 210.925781 182.699219 213.613281 C 181.578125 216.304688 180.203125 218.855469 178.578125 221.269531 C 176.949219 223.6875 175.101562 225.921875 173.03125 227.96875 C 170.992188 230.011719 168.773438 231.835938 166.375 233.441406 C 163.976562 235.046875 161.445312 236.402344 158.78125 237.511719 C 156.117188 238.621094 153.371094 239.457031 150.542969 240.027344 C 147.714844 240.597656 144.855469 240.886719 141.96875 240.894531 Z M 141.96875 240.894531 "/>
</g>
<g clip-path="url(#clip6)" clip-rule="nonzero">
<path style=" stroke:none;fill-rule:nonzero;fill:rgb(27.059937%,49.01886%,34.509277%);fill-opacity:1;" d="M 219.046875 241.101562 C 217.59375 241.09375 216.144531 241.015625 214.703125 240.871094 C 213.257812 240.722656 211.824219 240.503906 210.398438 240.214844 C 208.976562 239.925781 207.570312 239.570312 206.183594 239.140625 C 204.796875 238.714844 203.429688 238.222656 202.09375 237.664062 C 200.753906 237.101562 199.441406 236.480469 198.164062 235.789062 C 196.886719 235.101562 195.644531 234.351562 194.441406 233.542969 C 193.234375 232.730469 192.070312 231.867188 190.953125 230.941406 C 189.832031 230.015625 188.761719 229.039062 187.734375 228.011719 C 186.710938 226.980469 185.742188 225.90625 184.820312 224.78125 C 183.902344 223.65625 183.042969 222.492188 182.238281 221.28125 C 181.433594 220.074219 180.691406 218.828125 180.007812 217.546875 C 179.328125 216.265625 178.710938 214.953125 178.15625 213.609375 C 177.601562 212.269531 177.117188 210.902344 176.699219 209.511719 C 176.277344 208.121094 175.929688 206.714844 175.648438 205.292969 C 175.367188 203.867188 175.15625 202.433594 175.015625 200.988281 C 174.875 199.542969 174.804688 198.09375 174.804688 196.644531 L 186.328125 196.644531 C 186.324219 197.71875 186.375 198.792969 186.476562 199.863281 C 186.582031 200.933594 186.738281 201.996094 186.945312 203.050781 C 187.152344 204.105469 187.410156 205.148438 187.71875 206.179688 C 188.03125 207.210938 188.390625 208.222656 188.800781 209.21875 C 189.207031 210.210938 189.664062 211.183594 190.171875 212.132812 C 190.675781 213.082031 191.226562 214.007812 191.820312 214.902344 C 192.414062 215.796875 193.054688 216.664062 193.734375 217.496094 C 194.414062 218.328125 195.132812 219.128906 195.890625 219.890625 C 196.652344 220.652344 197.445312 221.375 198.273438 222.0625 C 199.105469 222.746094 199.964844 223.390625 200.859375 223.988281 C 201.75 224.589844 202.671875 225.144531 203.617188 225.65625 C 204.566406 226.164062 205.535156 226.625 206.527344 227.042969 C 207.523438 227.457031 208.53125 227.820312 209.5625 228.136719 C 210.589844 228.453125 211.632812 228.71875 212.6875 228.929688 C 213.742188 229.144531 214.804688 229.304688 215.875 229.414062 C 216.945312 229.523438 218.015625 229.578125 219.09375 229.582031 Z M 219.046875 241.101562 "/>
</g>
<g clip-path="url(#clip7)" clip-rule="nonzero">
<path style=" stroke:none;fill-rule:nonzero;fill:rgb(27.059937%,49.01886%,34.509277%);fill-opacity:1;" d="M 141.96875 274.5 L 141.855469 274.5 L 141.855469 262.984375 C 142.929688 262.984375 144.003906 262.933594 145.074219 262.832031 C 146.144531 262.730469 147.207031 262.574219 148.261719 262.367188 C 149.316406 262.160156 150.359375 261.902344 151.390625 261.59375 C 152.421875 261.28125 153.433594 260.921875 154.429688 260.515625 C 155.421875 260.105469 156.394531 259.648438 157.34375 259.144531 C 158.292969 258.640625 159.21875 258.089844 160.113281 257.496094 C 161.007812 256.902344 161.875 256.265625 162.707031 255.585938 C 163.539062 254.90625 164.339844 254.1875 165.101562 253.429688 C 165.863281 252.671875 166.589844 251.878906 167.273438 251.050781 C 167.957031 250.21875 168.601562 249.359375 169.203125 248.46875 C 169.800781 247.578125 170.359375 246.65625 170.867188 245.710938 C 171.378906 244.765625 171.839844 243.796875 172.257812 242.804688 C 172.671875 241.8125 173.039062 240.800781 173.355469 239.773438 C 173.667969 238.746094 173.933594 237.707031 174.148438 236.652344 C 174.363281 235.597656 174.523438 234.539062 174.632812 233.46875 C 174.742188 232.398438 174.800781 231.328125 174.804688 230.25 L 186.328125 230.25 C 186.324219 231.699219 186.246094 233.148438 186.101562 234.589844 C 185.953125 236.03125 185.738281 237.464844 185.453125 238.886719 C 185.164062 240.308594 184.808594 241.710938 184.386719 243.097656 C 183.960938 244.484375 183.46875 245.847656 182.910156 247.183594 C 182.355469 248.523438 181.730469 249.832031 181.046875 251.109375 C 180.359375 252.386719 179.613281 253.625 178.804688 254.832031 C 177.996094 256.035156 177.132812 257.199219 176.210938 258.316406 C 175.289062 259.4375 174.316406 260.507812 173.289062 261.53125 C 172.261719 262.558594 171.1875 263.527344 170.066406 264.449219 C 168.945312 265.367188 167.78125 266.226562 166.574219 267.03125 C 165.367188 267.839844 164.125 268.582031 162.84375 269.265625 C 161.566406 269.949219 160.257812 270.566406 158.917969 271.121094 C 157.578125 271.675781 156.210938 272.164062 154.824219 272.585938 C 153.4375 273.007812 152.03125 273.359375 150.609375 273.644531 C 149.1875 273.925781 147.753906 274.140625 146.3125 274.285156 C 144.867188 274.425781 143.421875 274.5 141.96875 274.5 Z M 141.96875 274.5 "/>
</g>
<g clip-path="url(#clip8)" clip-rule="nonzero">
<path style=" stroke:none;fill-rule:nonzero;fill:rgb(27.059937%,49.01886%,34.509277%);fill-opacity:1;" d="M 219.046875 274.707031 C 217.59375 274.703125 216.144531 274.628906 214.699219 274.480469 C 213.253906 274.335938 211.820312 274.117188 210.398438 273.828125 C 208.972656 273.542969 207.566406 273.1875 206.179688 272.761719 C 204.789062 272.335938 203.425781 271.84375 202.085938 271.28125 C 200.746094 270.722656 199.433594 270.097656 198.15625 269.410156 C 196.875 268.722656 195.632812 267.972656 194.429688 267.164062 C 193.222656 266.355469 192.058594 265.488281 190.941406 264.5625 C 189.820312 263.640625 188.746094 262.664062 187.722656 261.632812 C 186.699219 260.601562 185.726562 259.527344 184.808594 258.402344 C 183.890625 257.277344 183.027344 256.109375 182.222656 254.898438 C 181.421875 253.691406 180.675781 252.445312 179.996094 251.164062 C 179.3125 249.878906 178.695312 248.566406 178.144531 247.226562 C 177.589844 245.882812 177.105469 244.515625 176.6875 243.125 C 176.269531 241.734375 175.917969 240.328125 175.640625 238.902344 C 175.359375 237.476562 175.148438 236.042969 175.011719 234.597656 C 174.871094 233.152344 174.800781 231.703125 174.804688 230.25 L 186.328125 230.25 C 186.324219 231.328125 186.371094 232.402344 186.472656 233.472656 C 186.574219 234.542969 186.730469 235.605469 186.9375 236.664062 C 187.144531 237.71875 187.402344 238.761719 187.710938 239.792969 C 188.019531 240.824219 188.378906 241.835938 188.785156 242.832031 C 189.195312 243.828125 189.652344 244.800781 190.15625 245.75 C 190.660156 246.703125 191.210938 247.625 191.804688 248.519531 C 192.402344 249.417969 193.039062 250.28125 193.71875 251.117188 C 194.398438 251.949219 195.121094 252.75 195.878906 253.511719 C 196.636719 254.273438 197.433594 255 198.261719 255.683594 C 199.09375 256.367188 199.953125 257.011719 200.847656 257.609375 C 201.742188 258.210938 202.660156 258.765625 203.609375 259.277344 C 204.558594 259.785156 205.527344 260.246094 206.523438 260.660156 C 207.515625 261.074219 208.527344 261.441406 209.554688 261.753906 C 210.585938 262.070312 211.628906 262.332031 212.683594 262.546875 C 213.738281 262.757812 214.800781 262.917969 215.871094 263.027344 C 216.941406 263.132812 218.015625 263.1875 219.09375 263.191406 Z M 219.046875 274.707031 "/>
</g>
<g clip-path="url(#clip9)" clip-rule="nonzero">
<path style=" stroke:none;fill-rule:nonzero;fill:rgb(27.059937%,49.01886%,34.509277%);fill-opacity:1;" d="M 174.804688 163.058594 L 186.328125 163.058594 L 186.328125 311.863281 L 174.804688 311.863281 Z M 174.804688 163.058594 "/>
</g>
<g clip-path="url(#clip10)" clip-rule="nonzero">
<path style=" stroke:none;fill-rule:nonzero;fill:rgb(15.289307%,15.289307%,15.289307%);fill-opacity:1;" d="M 318.816406 101.015625 C 318.816406 102.234375 318.757812 103.453125 318.636719 104.664062 C 318.519531 105.878906 318.339844 107.082031 318.101562 108.277344 C 317.863281 109.472656 317.570312 110.652344 317.214844 111.820312 C 316.859375 112.984375 316.449219 114.132812 315.984375 115.257812 C 315.519531 116.382812 314.996094 117.484375 314.421875 118.558594 C 313.847656 119.632812 313.222656 120.675781 312.546875 121.691406 C 311.867188 122.703125 311.144531 123.683594 310.371094 124.625 C 309.597656 125.566406 308.78125 126.46875 307.917969 127.332031 C 307.054688 128.191406 306.152344 129.007812 305.210938 129.78125 C 304.269531 130.554688 303.292969 131.28125 302.277344 131.957031 C 301.265625 132.636719 300.222656 133.261719 299.144531 133.835938 C 298.070312 134.410156 296.972656 134.929688 295.84375 135.398438 C 294.71875 135.863281 293.574219 136.273438 292.40625 136.628906 C 291.238281 136.980469 290.058594 137.277344 288.863281 137.515625 C 287.667969 137.753906 286.464844 137.929688 285.25 138.050781 C 284.039062 138.171875 282.824219 138.230469 281.605469 138.230469 C 280.386719 138.230469 279.167969 138.171875 277.957031 138.050781 C 276.742188 137.929688 275.539062 137.753906 274.34375 137.515625 C 273.148438 137.277344 271.96875 136.980469 270.800781 136.628906 C 269.636719 136.273438 268.488281 135.863281 267.363281 135.398438 C 266.238281 134.929688 265.136719 134.410156 264.0625 133.835938 C 262.988281 133.261719 261.941406 132.636719 260.929688 131.957031 C 259.917969 131.28125 258.9375 130.554688 257.996094 129.78125 C 257.054688 129.007812 256.152344 128.191406 255.289062 127.332031 C 254.429688 126.46875 253.609375 125.566406 252.839844 124.625 C 252.066406 123.683594 251.339844 122.703125 250.664062 121.691406 C 249.984375 120.675781 249.359375 119.632812 248.785156 118.558594 C 248.210938 117.484375 247.691406 116.382812 247.222656 115.257812 C 246.757812 114.132812 246.347656 112.984375 245.992188 111.820312 C 245.640625 110.652344 245.34375 109.472656 245.105469 108.277344 C 244.867188 107.082031 244.691406 105.878906 244.570312 104.664062 C 244.449219 103.453125 244.390625 102.234375 244.390625 101.015625 C 244.390625 99.796875 244.449219 98.582031 244.570312 97.367188 C 244.691406 96.15625 244.867188 94.953125 245.105469 93.757812 C 245.34375 92.5625 245.640625 91.378906 245.992188 90.214844 C 246.347656 89.046875 246.757812 87.902344 247.222656 86.777344 C 247.691406 85.648438 248.210938 84.550781 248.785156 83.472656 C 249.359375 82.398438 249.984375 81.355469 250.664062 80.34375 C 251.339844 79.328125 252.066406 78.351562 252.839844 77.410156 C 253.609375 76.464844 254.429688 75.566406 255.289062 74.703125 C 256.152344 73.839844 257.054688 73.023438 257.996094 72.25 C 258.9375 71.476562 259.917969 70.753906 260.929688 70.074219 C 261.941406 69.398438 262.988281 68.773438 264.0625 68.199219 C 265.136719 67.625 266.238281 67.101562 267.363281 66.636719 C 268.488281 66.167969 269.636719 65.757812 270.800781 65.40625 C 271.96875 65.050781 273.148438 64.757812 274.34375 64.519531 C 275.539062 64.28125 276.742188 64.101562 277.957031 63.984375 C 279.167969 63.863281 280.386719 63.804688 281.605469 63.804688 C 282.824219 63.804688 284.039062 63.863281 285.25 63.984375 C 286.464844 64.101562 287.667969 64.28125 288.863281 64.519531 C 290.058594 64.757812 291.238281 65.050781 292.40625 65.40625 C 293.574219 65.757812 294.71875 66.167969 295.84375 66.636719 C 296.972656 67.101562 298.070312 67.625 299.144531 68.199219 C 300.222656 68.773438 301.265625 69.398438 302.277344 70.074219 C 303.292969 70.753906 304.269531 71.476562 305.210938 72.25 C 306.152344 73.023438 307.054688 73.839844 307.917969 74.703125 C 308.78125 75.566406 309.597656 76.464844 310.371094 77.410156 C 311.144531 78.351562 311.867188 79.328125 312.546875 80.34375 C 313.222656 81.355469 313.847656 82.398438 314.421875 83.472656 C 314.996094 84.550781 315.519531 85.648438 315.984375 86.777344 C 316.449219 87.902344 316.859375 89.046875 317.214844 90.214844 C 317.570312 91.378906 317.863281 92.5625 318.101562 93.757812 C 318.339844 94.953125 318.519531 96.15625 318.636719 97.367188 C 318.757812 98.582031 318.816406 99.796875 318.816406 101.015625 Z M 318.816406 101.015625 "/>
</g>
</g>
</svg>
