<?xml version="1.0" encoding="UTF-8"?>
<svg xmlns="http://www.w3.org/2000/svg" xmlns:xlink="http://www.w3.org/1999/xlink" width="375pt" height="374.999991pt" viewBox="0 0 375 374.999991" version="1.2">
<defs>
<clipPath id="clip1">
  <path d="M 0 20.664062 L 355.273438 20.664062 L 355.273438 375 L 0 375 Z M 0 20.664062 "/>
</clipPath>
<clipPath id="clip2">
  <path d="M 122 162.792969 L 186 162.792969 L 186 227 L 122 227 Z M 122 162.792969 "/>
</clipPath>
<clipPath id="clip3">
  <path d="M 169 162.792969 L 233 162.792969 L 233 227 L 169 227 Z M 169 162.792969 "/>
</clipPath>
<clipPath id="clip4">
  <path d="M 169 162.792969 L 186 162.792969 L 186 375 L 169 375 Z M 169 162.792969 "/>
</clipPath>
<clipPath id="clip5">
  <path d="M 268.984375 20.664062 L 375 20.664062 L 375 127.246094 L 268.984375 127.246094 Z M 268.984375 20.664062 "/>
</clipPath>
</defs>
<g id="surface1">
<g clip-path="url(#clip1)" clip-rule="nonzero">
<path style=" stroke:none;fill-rule:nonzero;fill:rgb(96.469116%,96.469116%,91.369629%);fill-opacity:1;" d="M 355.160156 375.9375 L 0.113281 375.9375 L 0.113281 20.664062 L 1.789062 20.664062 C 7.585938 20.691406 13.375 20.863281 19.160156 21.175781 C 24.949219 21.488281 30.722656 21.941406 36.488281 22.539062 C 42.253906 23.132812 48 23.871094 53.726562 24.746094 C 59.457031 25.621094 65.160156 26.640625 70.835938 27.792969 C 76.515625 28.949219 82.164062 30.246094 87.777344 31.675781 C 93.394531 33.109375 98.96875 34.679688 104.507812 36.382812 C 110.046875 38.089844 115.539062 39.929688 120.988281 41.902344 C 126.4375 43.875 131.835938 45.984375 137.179688 48.222656 C 142.523438 50.460938 147.8125 52.828125 153.042969 55.324219 C 158.269531 57.820312 163.4375 60.445312 168.539062 63.195312 C 173.636719 65.945312 178.667969 68.816406 183.628906 71.8125 C 188.589844 74.808594 193.472656 77.925781 198.28125 81.160156 C 203.089844 84.398438 207.816406 87.746094 212.460938 91.214844 C 217.101562 94.679688 221.660156 98.257812 226.128906 101.949219 C 230.597656 105.636719 234.972656 109.433594 239.253906 113.339844 C 243.539062 117.242188 247.722656 121.25 251.808594 125.359375 C 255.894531 129.464844 259.878906 133.671875 263.761719 137.976562 C 267.640625 142.28125 271.414062 146.675781 275.082031 151.164062 C 278.746094 155.652344 282.300781 160.226562 285.742188 164.890625 C 289.183594 169.554688 292.507812 174.296875 295.71875 179.121094 C 298.925781 183.945312 302.015625 188.847656 304.988281 193.824219 C 307.957031 198.800781 310.800781 203.847656 313.523438 208.960938 C 316.246094 214.078125 318.84375 219.257812 321.3125 224.5 C 323.78125 229.742188 326.121094 235.042969 328.332031 240.398438 C 330.539062 245.757812 332.617188 251.164062 334.5625 256.625 C 336.507812 262.082031 338.316406 267.585938 339.992188 273.132812 C 341.667969 278.679688 343.207031 284.265625 344.609375 289.890625 C 346.011719 295.511719 347.273438 301.164062 348.398438 306.851562 C 349.527344 312.535156 350.511719 318.246094 351.355469 323.976562 C 352.203125 329.710938 352.90625 335.460938 353.472656 341.226562 C 354.035156 346.996094 354.460938 352.773438 354.742188 358.5625 C 355.023438 364.347656 355.164062 370.140625 355.160156 375.9375 Z M 355.160156 375.9375 "/>
</g>
<path style=" stroke:none;fill-rule:nonzero;fill:rgb(79.60968%,86.669922%,81.959534%);fill-opacity:1;" d="M 177.582031 375.9375 L 0.113281 375.9375 L 0.113281 198.242188 L 1.007812 198.242188 C 3.902344 198.261719 6.796875 198.347656 9.691406 198.503906 C 12.582031 198.664062 15.46875 198.890625 18.351562 199.191406 C 21.234375 199.492188 24.105469 199.859375 26.96875 200.300781 C 29.832031 200.742188 32.683594 201.25 35.523438 201.828125 C 38.359375 202.410156 41.183594 203.058594 43.988281 203.777344 C 46.796875 204.492188 49.582031 205.277344 52.351562 206.132812 C 55.121094 206.988281 57.867188 207.910156 60.589844 208.898438 C 63.3125 209.886719 66.007812 210.941406 68.679688 212.058594 C 71.351562 213.179688 73.996094 214.367188 76.609375 215.613281 C 79.222656 216.863281 81.804688 218.179688 84.351562 219.554688 C 86.902344 220.929688 89.414062 222.367188 91.894531 223.867188 C 94.375 225.367188 96.8125 226.925781 99.214844 228.542969 C 101.621094 230.160156 103.980469 231.839844 106.300781 233.570312 C 108.621094 235.304688 110.898438 237.097656 113.132812 238.941406 C 115.363281 240.789062 117.550781 242.6875 119.691406 244.640625 C 121.832031 246.589844 123.921875 248.59375 125.964844 250.648438 C 128.007812 252.703125 129.996094 254.808594 131.9375 256.960938 C 133.875 259.113281 135.761719 261.3125 137.589844 263.554688 C 139.421875 265.800781 141.199219 268.089844 142.917969 270.421875 C 144.636719 272.75 146.296875 275.125 147.902344 277.535156 C 149.503906 279.949219 151.046875 282.398438 152.53125 284.886719 C 154.015625 287.375 155.4375 289.898438 156.796875 292.457031 C 158.15625 295.015625 159.453125 297.605469 160.6875 300.226562 C 161.921875 302.847656 163.089844 305.496094 164.191406 308.175781 C 165.296875 310.855469 166.332031 313.558594 167.304688 316.289062 C 168.273438 319.015625 169.179688 321.769531 170.015625 324.542969 C 170.851562 327.316406 171.621094 330.109375 172.320312 332.917969 C 173.019531 335.730469 173.652344 338.558594 174.210938 341.398438 C 174.773438 344.242188 175.265625 347.09375 175.6875 349.960938 C 176.109375 352.828125 176.460938 355.703125 176.742188 358.585938 C 177.023438 361.46875 177.234375 364.355469 177.375 367.25 C 177.511719 370.144531 177.582031 373.039062 177.582031 375.9375 Z M 177.582031 375.9375 "/>
<g clip-path="url(#clip2)" clip-rule="nonzero">
<path style=" stroke:none;fill-rule:nonzero;fill:rgb(27.059937%,49.01886%,34.509277%);fill-opacity:1;" d="M 122.289062 226.171875 L 122.125 226.171875 L 122.125 209.675781 C 125.1875 209.671875 128.222656 209.375 131.226562 208.773438 C 134.234375 208.175781 137.152344 207.292969 139.980469 206.121094 C 142.8125 204.949219 145.503906 203.511719 148.050781 201.8125 C 150.601562 200.113281 152.957031 198.179688 155.125 196.015625 C 157.351562 193.855469 159.34375 191.496094 161.101562 188.941406 C 162.859375 186.386719 164.347656 183.683594 165.566406 180.832031 C 166.78125 177.976562 167.707031 175.035156 168.339844 171.996094 C 168.972656 168.960938 169.296875 165.894531 169.316406 162.792969 L 185.820312 162.792969 C 185.824219 166.964844 185.414062 171.097656 184.597656 175.1875 C 183.78125 179.28125 182.570312 183.25 180.964844 187.101562 C 179.355469 190.953125 177.386719 194.609375 175.054688 198.070312 C 172.722656 201.53125 170.074219 204.726562 167.105469 207.660156 C 164.167969 210.605469 160.96875 213.234375 157.507812 215.546875 C 154.050781 217.859375 150.398438 219.808594 146.550781 221.398438 C 142.703125 222.988281 138.738281 224.183594 134.65625 224.984375 C 130.574219 225.789062 126.449219 226.183594 122.289062 226.171875 Z M 122.289062 226.171875 "/>
</g>
<g clip-path="url(#clip3)" clip-rule="nonzero">
<path style=" stroke:none;fill-rule:nonzero;fill:rgb(27.059937%,49.01886%,34.509277%);fill-opacity:1;" d="M 232.683594 226.46875 C 230.605469 226.460938 228.527344 226.351562 226.460938 226.140625 C 224.390625 225.929688 222.335938 225.617188 220.296875 225.203125 C 218.257812 224.792969 216.246094 224.28125 214.257812 223.667969 C 212.269531 223.058594 210.3125 222.355469 208.394531 221.550781 C 206.476562 220.75 204.601562 219.855469 202.769531 218.871094 C 200.9375 217.886719 199.15625 216.8125 197.429688 215.652344 C 195.707031 214.492188 194.039062 213.25 192.4375 211.925781 C 190.832031 210.601562 189.296875 209.203125 187.828125 207.730469 C 186.363281 206.253906 184.96875 204.710938 183.65625 203.101562 C 182.339844 201.492188 181.105469 199.820312 179.953125 198.089844 C 178.800781 196.355469 177.738281 194.574219 176.761719 192.738281 C 175.785156 190.902344 174.902344 189.019531 174.109375 187.097656 C 173.316406 185.175781 172.621094 183.21875 172.019531 181.226562 C 171.421875 179.238281 170.917969 177.222656 170.519531 175.179688 C 170.117188 173.140625 169.8125 171.085938 169.613281 169.015625 C 169.414062 166.945312 169.316406 164.871094 169.316406 162.792969 L 185.820312 162.792969 C 185.816406 164.332031 185.886719 165.871094 186.035156 167.402344 C 186.183594 168.9375 186.40625 170.457031 186.703125 171.96875 C 187 173.480469 187.371094 174.976562 187.816406 176.449219 C 188.257812 177.925781 188.773438 179.375 189.359375 180.800781 C 189.945312 182.226562 190.601562 183.617188 191.324219 184.980469 C 192.046875 186.339844 192.835938 187.660156 193.6875 188.945312 C 194.539062 190.226562 195.453125 191.464844 196.429688 192.660156 C 197.402344 193.851562 198.433594 194.996094 199.519531 196.089844 C 200.605469 197.179688 201.746094 198.21875 202.933594 199.199219 C 204.121094 200.179688 205.355469 201.097656 206.632812 201.957031 C 207.914062 202.816406 209.230469 203.613281 210.585938 204.34375 C 211.945312 205.074219 213.332031 205.734375 214.753906 206.332031 C 216.175781 206.925781 217.625 207.449219 219.097656 207.898438 C 220.570312 208.351562 222.0625 208.730469 223.574219 209.035156 C 225.082031 209.339844 226.605469 209.570312 228.140625 209.726562 C 229.671875 209.882812 231.207031 209.964844 232.75 209.972656 Z M 232.683594 226.46875 "/>
</g>
<path style=" stroke:none;fill-rule:nonzero;fill:rgb(27.059937%,49.01886%,34.509277%);fill-opacity:1;" d="M 122.289062 274.304688 L 122.125 274.304688 L 122.125 257.808594 C 125.191406 257.808594 128.226562 257.507812 131.230469 256.910156 C 134.238281 256.3125 137.15625 255.425781 139.988281 254.25 C 142.820312 253.074219 145.511719 251.632812 148.058594 249.929688 C 150.605469 248.226562 152.960938 246.289062 155.125 244.117188 C 157.324219 241.949219 159.285156 239.585938 161.007812 237.027344 C 162.734375 234.46875 164.195312 231.765625 165.382812 228.917969 C 166.574219 226.070312 167.472656 223.128906 168.078125 220.101562 C 168.683594 217.074219 168.988281 214.015625 168.988281 210.925781 L 185.488281 210.925781 C 185.488281 215.097656 185.082031 219.230469 184.261719 223.320312 C 183.445312 227.414062 182.230469 231.382812 180.625 235.234375 C 179.019531 239.085938 177.050781 242.742188 174.71875 246.203125 C 172.390625 249.664062 169.742188 252.859375 166.777344 255.796875 C 163.855469 258.71875 160.679688 261.332031 157.242188 263.632812 C 153.808594 265.929688 150.183594 267.875 146.367188 269.460938 C 142.554688 271.050781 138.617188 272.25 134.566406 273.066406 C 130.515625 273.878906 126.421875 274.292969 122.289062 274.304688 Z M 122.289062 274.304688 "/>
<path style=" stroke:none;fill-rule:nonzero;fill:rgb(27.059937%,49.01886%,34.509277%);fill-opacity:1;" d="M 232.683594 274.601562 C 230.605469 274.59375 228.53125 274.484375 226.460938 274.273438 C 224.390625 274.058594 222.339844 273.746094 220.300781 273.335938 C 218.261719 272.921875 216.25 272.410156 214.261719 271.796875 C 212.273438 271.1875 210.320312 270.480469 208.398438 269.679688 C 206.480469 268.875 204.605469 267.984375 202.773438 266.996094 C 200.945312 266.011719 199.164062 264.9375 197.4375 263.777344 C 195.714844 262.617188 194.046875 261.375 192.445312 260.050781 C 190.839844 258.726562 189.304688 257.328125 187.839844 255.855469 C 186.371094 254.382812 184.980469 252.839844 183.664062 251.230469 C 182.347656 249.617188 181.117188 247.949219 179.964844 246.214844 C 178.8125 244.484375 177.746094 242.703125 176.769531 240.867188 C 175.792969 239.03125 174.910156 237.152344 174.117188 235.230469 C 173.324219 233.308594 172.628906 231.351562 172.027344 229.359375 C 171.425781 227.371094 170.925781 225.355469 170.523438 223.3125 C 170.121094 221.273438 169.816406 219.21875 169.617188 217.152344 C 169.414062 215.082031 169.316406 213.007812 169.316406 210.925781 L 185.820312 210.925781 C 185.816406 212.46875 185.886719 214.003906 186.035156 215.539062 C 186.183594 217.070312 186.40625 218.59375 186.703125 220.105469 C 187 221.617188 187.371094 223.113281 187.816406 224.585938 C 188.257812 226.0625 188.773438 227.511719 189.359375 228.9375 C 189.945312 230.363281 190.601562 231.753906 191.324219 233.113281 C 192.046875 234.476562 192.835938 235.796875 193.6875 237.078125 C 194.539062 238.363281 195.453125 239.601562 196.429688 240.796875 C 197.402344 241.988281 198.433594 243.132812 199.519531 244.222656 C 200.605469 245.316406 201.746094 246.351562 202.933594 247.332031 C 204.121094 248.316406 205.355469 249.234375 206.632812 250.09375 C 207.914062 250.953125 209.230469 251.75 210.585938 252.480469 C 211.945312 253.210938 213.332031 253.871094 214.753906 254.464844 C 216.175781 255.058594 217.625 255.582031 219.097656 256.035156 C 220.570312 256.488281 222.0625 256.867188 223.574219 257.171875 C 225.082031 257.476562 226.605469 257.707031 228.140625 257.863281 C 229.671875 258.019531 231.207031 258.101562 232.75 258.105469 Z M 232.683594 274.601562 "/>
<path style=" stroke:none;fill-rule:nonzero;fill:rgb(27.059937%,49.01886%,34.509277%);fill-opacity:1;" d="M 122.289062 322.441406 L 122.125 322.441406 L 122.125 305.945312 C 123.664062 305.949219 125.199219 305.875 126.734375 305.730469 C 128.269531 305.582031 129.789062 305.359375 131.300781 305.0625 C 132.8125 304.765625 134.304688 304.394531 135.78125 303.953125 C 137.257812 303.507812 138.707031 302.996094 140.132812 302.410156 C 141.554688 301.824219 142.949219 301.167969 144.308594 300.449219 C 145.667969 299.726562 146.992188 298.9375 148.273438 298.085938 C 149.558594 297.234375 150.796875 296.324219 151.988281 295.347656 C 153.183594 294.375 154.328125 293.347656 155.417969 292.261719 C 156.511719 291.175781 157.550781 290.039062 158.53125 288.851562 C 159.511719 287.664062 160.433594 286.433594 161.292969 285.15625 C 162.152344 283.878906 162.949219 282.5625 163.679688 281.207031 C 164.410156 279.851562 165.074219 278.460938 165.667969 277.042969 C 166.261719 275.621094 166.785156 274.175781 167.238281 272.703125 C 167.691406 271.230469 168.070312 269.742188 168.378906 268.230469 C 168.683594 266.722656 168.914062 265.203125 169.074219 263.671875 C 169.230469 262.140625 169.3125 260.601562 169.316406 259.0625 L 185.820312 259.0625 C 185.8125 261.140625 185.707031 263.210938 185.496094 265.277344 C 185.285156 267.34375 184.976562 269.394531 184.566406 271.429688 C 184.15625 273.464844 183.644531 275.476562 183.039062 277.460938 C 182.429688 279.449219 181.726562 281.398438 180.929688 283.316406 C 180.128906 285.234375 179.238281 287.105469 178.257812 288.9375 C 177.273438 290.765625 176.203125 292.542969 175.046875 294.269531 C 173.890625 295.992188 172.652344 297.65625 171.332031 299.261719 C 170.011719 300.867188 168.617188 302.402344 167.144531 303.867188 C 165.675781 305.335938 164.136719 306.726562 162.53125 308.042969 C 160.921875 309.359375 159.257812 310.59375 157.527344 311.746094 C 155.800781 312.898438 154.019531 313.964844 152.1875 314.941406 C 150.355469 315.921875 148.480469 316.808594 146.558594 317.601562 C 144.640625 318.398438 142.6875 319.097656 140.699219 319.699219 C 138.710938 320.304688 136.699219 320.808594 134.664062 321.214844 C 132.625 321.621094 130.574219 321.925781 128.503906 322.128906 C 126.4375 322.335938 124.367188 322.441406 122.289062 322.441406 Z M 122.289062 322.441406 "/>
<path style=" stroke:none;fill-rule:nonzero;fill:rgb(27.059937%,49.01886%,34.509277%);fill-opacity:1;" d="M 232.683594 322.738281 C 231.644531 322.734375 230.605469 322.707031 229.566406 322.652344 C 228.527344 322.597656 227.492188 322.519531 226.457031 322.414062 C 225.425781 322.308594 224.394531 322.179688 223.367188 322.023438 C 222.335938 321.867188 221.3125 321.6875 220.296875 321.480469 C 219.277344 321.273438 218.261719 321.042969 217.253906 320.789062 C 216.246094 320.535156 215.246094 320.253906 214.253906 319.949219 C 213.257812 319.644531 212.273438 319.316406 211.296875 318.960938 C 210.316406 318.609375 209.347656 318.234375 208.390625 317.832031 C 207.429688 317.433594 206.480469 317.007812 205.542969 316.5625 C 204.605469 316.113281 203.675781 315.644531 202.761719 315.152344 C 201.847656 314.660156 200.945312 314.144531 200.054688 313.609375 C 199.164062 313.070312 198.285156 312.511719 197.421875 311.933594 C 196.5625 311.355469 195.710938 310.753906 194.878906 310.132812 C 194.046875 309.511719 193.230469 308.871094 192.425781 308.207031 C 191.625 307.546875 190.839844 306.867188 190.070312 306.164062 C 189.304688 305.464844 188.550781 304.746094 187.820312 304.011719 C 187.085938 303.273438 186.371094 302.519531 185.675781 301.746094 C 184.980469 300.976562 184.300781 300.1875 183.644531 299.382812 C 182.988281 298.578125 182.347656 297.757812 181.730469 296.921875 C 181.113281 296.085938 180.519531 295.234375 179.945312 294.367188 C 179.367188 293.503906 178.8125 292.625 178.28125 291.730469 C 177.75 290.839844 177.238281 289.933594 176.75 289.015625 C 176.265625 288.097656 175.796875 287.167969 175.355469 286.226562 C 174.914062 285.289062 174.496094 284.335938 174.101562 283.375 C 173.703125 282.414062 173.332031 281.445312 172.984375 280.464844 C 172.636719 279.484375 172.3125 278.5 172.011719 277.503906 C 171.714844 276.507812 171.4375 275.507812 171.1875 274.496094 C 170.9375 273.488281 170.710938 272.472656 170.511719 271.453125 C 170.3125 270.433594 170.136719 269.410156 169.984375 268.382812 C 169.835938 267.355469 169.710938 266.324219 169.609375 265.289062 C 169.511719 264.253906 169.4375 263.21875 169.386719 262.179688 C 169.339844 261.140625 169.316406 260.101562 169.316406 259.0625 L 185.820312 259.0625 C 185.8125 260.605469 185.882812 262.140625 186.03125 263.675781 C 186.175781 265.210938 186.398438 266.734375 186.691406 268.246094 C 186.988281 269.757812 187.359375 271.253906 187.800781 272.730469 C 188.242188 274.207031 188.757812 275.65625 189.34375 277.082031 C 189.929688 278.507812 190.582031 279.902344 191.304688 281.261719 C 192.027344 282.625 192.816406 283.949219 193.667969 285.230469 C 194.519531 286.515625 195.433594 287.753906 196.410156 288.949219 C 197.382812 290.144531 198.414062 291.285156 199.5 292.378906 C 200.585938 293.472656 201.726562 294.507812 202.914062 295.488281 C 204.105469 296.472656 205.339844 297.390625 206.617188 298.25 C 207.898438 299.109375 209.214844 299.90625 210.574219 300.636719 C 211.933594 301.363281 213.320312 302.027344 214.746094 302.621094 C 216.167969 303.214844 217.617188 303.734375 219.089844 304.1875 C 220.566406 304.636719 222.058594 305.015625 223.570312 305.316406 C 225.082031 305.621094 226.601562 305.851562 228.136719 306.007812 C 229.671875 306.160156 231.207031 306.238281 232.75 306.242188 Z M 232.683594 322.738281 "/>
<g clip-path="url(#clip4)" clip-rule="nonzero">
<path style=" stroke:none;fill-rule:nonzero;fill:rgb(27.059937%,49.01886%,34.509277%);fill-opacity:1;" d="M 169.316406 162.824219 L 185.820312 162.824219 L 185.820312 375.957031 L 169.316406 375.957031 Z M 169.316406 162.824219 "/>
</g>
<g clip-path="url(#clip5)" clip-rule="nonzero">
<path style=" stroke:none;fill-rule:nonzero;fill:rgb(79.60968%,86.669922%,81.959534%);fill-opacity:1;" d="M 375.582031 73.964844 C 375.582031 75.707031 375.496094 77.449219 375.328125 79.1875 C 375.15625 80.925781 374.898438 82.648438 374.558594 84.359375 C 374.21875 86.074219 373.796875 87.765625 373.289062 89.433594 C 372.78125 91.105469 372.195312 92.746094 371.527344 94.359375 C 370.859375 95.972656 370.113281 97.546875 369.289062 99.089844 C 368.46875 100.628906 367.570312 102.125 366.601562 103.574219 C 365.632812 105.027344 364.59375 106.425781 363.484375 107.777344 C 362.378906 109.125 361.207031 110.417969 359.972656 111.652344 C 358.738281 112.886719 357.445312 114.058594 356.097656 115.164062 C 354.746094 116.273438 353.347656 117.308594 351.894531 118.28125 C 350.445312 119.25 348.949219 120.144531 347.410156 120.96875 C 345.871094 121.792969 344.292969 122.539062 342.679688 123.207031 C 341.066406 123.875 339.425781 124.460938 337.753906 124.96875 C 336.085938 125.472656 334.394531 125.898438 332.683594 126.238281 C 330.96875 126.578125 329.246094 126.835938 327.507812 127.007812 C 325.769531 127.175781 324.03125 127.261719 322.285156 127.261719 C 320.539062 127.261719 318.796875 127.175781 317.058594 127.007812 C 315.324219 126.835938 313.597656 126.578125 311.886719 126.238281 C 310.171875 125.898438 308.480469 125.472656 306.8125 124.96875 C 305.140625 124.460938 303.5 123.875 301.886719 123.207031 C 300.273438 122.539062 298.699219 121.792969 297.160156 120.96875 C 295.617188 120.144531 294.125 119.25 292.671875 118.28125 C 291.21875 117.308594 289.820312 116.273438 288.472656 115.164062 C 287.121094 114.058594 285.828125 112.886719 284.59375 111.652344 C 283.359375 110.417969 282.191406 109.125 281.082031 107.777344 C 279.976562 106.425781 278.9375 105.027344 277.964844 103.574219 C 276.996094 102.125 276.101562 100.628906 275.277344 99.089844 C 274.453125 97.546875 273.710938 95.972656 273.042969 94.359375 C 272.375 92.746094 271.785156 91.105469 271.277344 89.433594 C 270.773438 87.765625 270.347656 86.074219 270.007812 84.359375 C 269.667969 82.648438 269.410156 80.925781 269.242188 79.1875 C 269.070312 77.449219 268.984375 75.707031 268.984375 73.964844 C 268.984375 72.21875 269.070312 70.476562 269.242188 68.738281 C 269.410156 67 269.667969 65.277344 270.007812 63.566406 C 270.347656 61.851562 270.773438 60.160156 271.277344 58.492188 C 271.785156 56.820312 272.375 55.179688 273.042969 53.566406 C 273.710938 51.953125 274.453125 50.378906 275.277344 48.835938 C 276.101562 47.296875 276.996094 45.804688 277.964844 44.351562 C 278.9375 42.898438 279.976562 41.5 281.082031 40.148438 C 282.191406 38.800781 283.359375 37.507812 284.59375 36.273438 C 285.828125 35.039062 287.121094 33.871094 288.472656 32.761719 C 289.820312 31.65625 291.21875 30.617188 292.671875 29.644531 C 294.125 28.675781 295.617188 27.78125 297.160156 26.957031 C 298.699219 26.132812 300.273438 25.386719 301.886719 24.71875 C 303.5 24.050781 305.140625 23.464844 306.8125 22.957031 C 308.480469 22.453125 310.171875 22.027344 311.886719 21.6875 C 313.597656 21.347656 315.324219 21.089844 317.058594 20.921875 C 318.796875 20.75 320.539062 20.664062 322.285156 20.664062 C 324.03125 20.664062 325.769531 20.75 327.507812 20.921875 C 329.246094 21.089844 330.96875 21.347656 332.683594 21.6875 C 334.394531 22.027344 336.085938 22.453125 337.753906 22.957031 C 339.425781 23.464844 341.066406 24.050781 342.679688 24.71875 C 344.292969 25.386719 345.871094 26.132812 347.410156 26.957031 C 348.949219 27.78125 350.445312 28.675781 351.894531 29.644531 C 353.347656 30.617188 354.746094 31.65625 356.097656 32.761719 C 357.445312 33.871094 358.738281 35.039062 359.972656 36.273438 C 361.207031 37.507812 362.378906 38.800781 363.484375 40.148438 C 364.59375 41.5 365.632812 42.898438 366.601562 44.351562 C 367.570312 45.804688 368.46875 47.296875 369.289062 48.835938 C 370.113281 50.378906 370.859375 51.953125 371.527344 53.566406 C 372.195312 55.179688 372.78125 56.820312 373.289062 58.492188 C 373.796875 60.160156 374.21875 61.851562 374.558594 63.566406 C 374.898438 65.277344 375.15625 67 375.328125 68.738281 C 375.496094 70.476562 375.582031 72.21875 375.582031 73.964844 Z M 375.582031 73.964844 "/>
</g>
</g>
</svg>
